<svg width="524" height="185" viewBox="0 0 524 185" fill="none" xmlns="http://www.w3.org/2000/svg">
<g clip-path="url(#clip0_14_12)">
<path d="M47 87.0455C47 101.201 58.4563 112.63 72.6463 112.63C86.7063 112.63 98.2927 101.201 98.2927 87.0455C98.2927 73.0195 86.7063 61.4611 72.6463 61.4611C58.4563 61.4611 47 73.0195 47 87.0455ZM156.876 51.5909C156.876 46.7857 160.911 42.5 165.989 42.5C171.066 42.5 175.362 46.7857 175.362 51.5909V103.539C175.362 108.344 171.066 112.63 165.989 112.63C160.911 112.63 156.876 108.344 156.876 103.539V51.5909ZM53.7696 125.357C54.8111 134.318 62.2316 142.5 72.6463 142.5C82.9309 142.5 90.6118 134.318 91.6533 125.357C93.0853 112.37 81.2385 116.656 72.6463 116.656C64.0541 116.656 52.3376 112.37 53.7696 125.357ZM136.436 90.6818C137.348 88.6039 139.691 87.3052 144.248 87.3052C151.408 87.1753 154.272 82.5 150.497 75.0974C147.893 70.0325 143.858 66.1364 138.39 63.6689C125.501 57.9545 110.27 63.7987 104.542 76.6558C98.8134 89.3831 104.542 104.578 117.56 110.422C123.028 112.76 128.495 113.149 134.093 111.721C142.165 109.513 143.858 104.188 139.04 98.8636C136.046 95.3571 135.395 92.8896 136.436 90.6818Z" fill="#9BC020"/>
</g>
<path d="M268 64.0667C272.318 64.0667 275.808 67.5421 275.808 71.8333V82.6663H286.692C291.011 82.6663 294.5 86.1419 294.5 90.4329V94.5667C294.5 98.8578 291.011 102.333 286.692 102.333H275.808V113.166C275.808 117.457 272.319 120.933 268 120.933C263.681 120.933 260.192 117.457 260.192 113.166V102.333H249.308C244.989 102.333 241.5 98.8578 241.5 94.5667V90.4329C241.5 86.1419 244.989 82.6663 249.308 82.6663H260.192V71.8333C260.192 67.5421 263.682 64.0667 268 64.0667ZM268 67.2004C265.43 67.2004 263.346 69.27 263.346 71.8333V84.2336C263.346 85.0916 262.638 85.7999 261.77 85.8H249.308C246.738 85.8001 244.655 87.8698 244.654 90.4329C244.654 92.9961 246.738 95.0666 249.308 95.0667H261.77C262.638 95.0668 263.346 95.7751 263.346 96.6331V109.033C263.346 111.597 265.43 113.666 268 113.666C270.57 113.666 272.654 111.597 272.654 109.033V96.6331C272.654 95.7751 273.362 95.0668 274.23 95.0667H286.692C289.262 95.0666 291.346 92.9961 291.346 90.4329C291.345 87.8698 289.262 85.8001 286.692 85.8H274.23C273.362 85.7999 272.654 85.0916 272.654 84.2336V71.8333C272.654 69.27 270.57 67.2004 268 67.2004Z" fill="black" stroke="#1BE26E"/>
<g clip-path="url(#clip1_14_12)">
<rect width="117" height="117" transform="translate(360 34)" fill="white"/>
<path d="M419.15 81.84H438.975V103.42H419.15V81.84Z" fill="black"/>
<path d="M360 34V151H477V34H360ZM460.62 103.42V122.92H419.15V103.42H396.53V122.92H376.185V62.34H396.53V81.84H419.15V62.34H460.62V103.42Z" fill="black"/>
</g>
<defs>
<clipPath id="clip0_14_12">
<rect width="129" height="100" fill="white" transform="translate(47 42.5)"/>
</clipPath>
<clipPath id="clip1_14_12">
<rect width="117" height="117" fill="white" transform="translate(360 34)"/>
</clipPath>
</defs>
</svg>
